<svg width="64" height="64" viewBox="0 0 64 64" fill="none" xmlns="http://www.w3.org/2000/svg">
  <!-- Background circle -->
  <circle cx="32" cy="32" r="30" fill="#f0fdf4" stroke="#059669" stroke-width="2"/>
  
  <!-- Hands reaching toward each other -->
  <path d="M12 32 Q16 28 20 32 Q24 36 28 32" fill="#059669" opacity="0.8"/>
  <path d="M52 32 Q48 28 44 32 Q40 36 36 32" fill="#059669" opacity="0.8"/>
  
  <!-- Bridge/Connection -->
  <rect x="28" y="30" width="8" height="4" rx="2" fill="#fbbf24"/>
  
  <!-- Heart symbol (representing compassion) -->
  <path d="M32 42 C28 38 22 36 22 30 C22 28 24 26 26 26 C28 26 30 28 32 30 C34 28 36 26 38 26 C40 26 42 28 42 30 C42 36 36 38 32 42Z" fill="#dc2626" opacity="0.7"/>
  
  <!-- Crescent moon (Islamic symbol) -->
  <path d="M32 18 C28 18 25 15 25 11 C25 13 27 15 30 15 C33 15 35 13 35 11 C35 15 32 18 32 18Z" fill="#fbbf24"/>
  
  <!-- Star -->
  <path d="M40 12 L41 15 L44 15 L42 17 L43 20 L40 18 L37 20 L38 17 L36 15 L39 15 Z" fill="#fbbf24"/>
  
  <!-- Light rays emanating -->
  <circle cx="32" cy="32" r="25" fill="none" stroke="#fbbf24" stroke-width="0.5" opacity="0.3"/>
  <circle cx="32" cy="32" r="20" fill="none" stroke="#fbbf24" stroke-width="0.5" opacity="0.5"/>
</svg>
