<svg width="64" height="64" viewBox="0 0 64 64" fill="none" xmlns="http://www.w3.org/2000/svg">
  <!-- Background circle -->
  <circle cx="32" cy="32" r="30" fill="#f0fdf4" stroke="#059669" stroke-width="2"/>
  
  <!-- Bookshelf -->
  <rect x="12" y="45" width="40" height="8" rx="1" fill="#92400e"/>
  
  <!-- Books stack 1 -->
  <rect x="14" y="37" width="6" height="8" rx="1" fill="#059669"/>
  <rect x="14" y="35" width="6" height="2" fill="#fbbf24"/>
  
  <!-- Books stack 2 -->
  <rect x="22" y="33" width="6" height="12" rx="1" fill="#1e40af"/>
  <rect x="22" y="31" width="6" height="2" fill="#fbbf24"/>
  
  <!-- Books stack 3 -->
  <rect x="30" y="39" width="6" height="6" rx="1" fill="#7c2d12"/>
  <rect x="30" y="37" width="6" height="2" fill="#fbbf24"/>
  
  <!-- Books stack 4 -->
  <rect x="38" y="35" width="6" height="10" rx="1" fill="#059669"/>
  <rect x="38" y="33" width="6" height="2" fill="#fbbf24"/>
  
  <!-- Books stack 5 -->
  <rect x="46" y="41" width="6" height="4" rx="1" fill="#1e40af"/>
  <rect x="46" y="39" width="6" height="2" fill="#fbbf24"/>
  
  <!-- Islamic arch above -->
  <path d="M20 30 Q32 15 44 30" fill="none" stroke="#059669" stroke-width="2"/>
  
  <!-- Geometric pattern in arch -->
  <circle cx="32" cy="22" r="4" fill="none" stroke="#fbbf24" stroke-width="1"/>
  <path d="M29 22 L35 22 M32 19 L32 25" stroke="#fbbf24" stroke-width="1"/>
  
  <!-- Digital glow effect -->
  <circle cx="32" cy="35" r="18" fill="none" stroke="#fbbf24" stroke-width="0.5" opacity="0.3"/>
  <circle cx="32" cy="35" r="15" fill="none" stroke="#fbbf24" stroke-width="0.5" opacity="0.5"/>
  
  <!-- Small Arabic text decoration -->
  <path d="M16 30 Q18 28 20 30" stroke="#059669" stroke-width="1" fill="none"/>
  <path d="M44 30 Q46 28 48 30" stroke="#059669" stroke-width="1" fill="none"/>
</svg>
